<?xml version="1.0" encoding="utf-8"?>
<!-- Generator: Adobe Illustrator 27.5.0, SVG Export Plug-In . SVG Version: 6.00 Build 0)  -->
<svg version="1.1" xmlns="http://www.w3.org/2000/svg" xmlns:xlink="http://www.w3.org/1999/xlink" x="0px" y="0px"
	 viewBox="0 0 500 500" style="enable-background:new 0 0 500 500;" xml:space="preserve">
<g id="Background_Simple">
	<g>
		<path style="fill:#92E3A9;" d="M420.642,65.016c-3.399-0.851-6.778-1.749-10.15-2.691C374.189,52.191,205.19,7.388,149.595,35.283
			C87.173,66.604,17.449,320.503,73.444,370.087c55.994,49.584,268.876,96.971,310.123,64.194
			c41.247-32.777,104.247-262.602,96.805-311.35C474.017,81.307,432.61,68.013,420.642,65.016z"/>
		<path style="opacity:0.7;fill:#FFFFFF;" d="M420.642,65.016c-3.399-0.851-6.778-1.749-10.15-2.691
			C374.189,52.191,205.19,7.388,149.595,35.283C87.173,66.604,17.449,320.503,73.444,370.087
			c55.994,49.584,268.876,96.971,310.123,64.194c41.247-32.777,104.247-262.602,96.805-311.35
			C474.017,81.307,432.61,68.013,420.642,65.016z"/>
	</g>
</g>
<g id="Graphics">
	<g>
		<path style="fill:none;stroke:#263238;stroke-linecap:round;stroke-linejoin:round;stroke-miterlimit:10;" d="M377.337,258.07
			c-2.807-3.284-6.016-6.22-9.549-8.725c-6.144-4.351-13.272-7.408-20.983-8.777c-2.974-0.53-6.038-0.802-9.171-0.802
			c-28.845,0-52.226,23.374-52.226,52.219c0,11.017,3.413,21.24,9.247,29.67c3.519,5.092,7.923,9.534,12.985,13.09
			c8.49,5.963,18.834,9.466,29.995,9.466c28.837,0,52.219-23.382,52.219-52.227C389.853,279.038,385.146,267.195,377.337,258.07z
			 M354.302,336.862c-5.191,1.929-10.807,2.983-16.669,2.983c-10.23,0-19.704-3.208-27.483-8.679
			c-4.646-3.254-8.679-7.325-11.903-11.994c-5.35-7.718-8.475-17.086-8.475-27.188c0-26.431,21.429-47.86,47.86-47.86
			c2.868,0,5.675,0.25,8.407,0.734c7.068,1.256,13.598,4.056,19.227,8.051c3.246,2.293,6.19,4.979,8.755,7.998
			c7.158,8.354,11.471,19.212,11.471,31.077c0,17.998-9.936,33.677-24.622,41.849"/>
		<path style="fill:none;stroke:#263238;stroke-linecap:round;stroke-linejoin:round;stroke-miterlimit:10;" d="M377.337,258.07
			c-2.807-3.284-6.016-6.22-9.549-8.725c-6.144-4.351-13.272-7.408-20.983-8.777c-2.974-0.53-6.038-0.802-9.171-0.802
			c-28.845,0-52.226,23.374-52.226,52.219c0,11.017,3.413,21.24,9.247,29.67c3.519,5.092,7.923,9.534,12.985,13.09
			c8.49,5.963,18.834,9.466,29.995,9.466c28.837,0,52.219-23.382,52.219-52.227C389.853,279.038,385.146,267.195,377.337,258.07z"/>
		<g>
			<path style="fill:none;stroke:#263238;stroke-linecap:round;stroke-linejoin:round;stroke-miterlimit:10;" d="M376.361,242.918
				c-0.86-0.68-1.738-1.337-2.634-1.972c-7.355-5.214-15.883-8.876-25.114-10.51c-3.564-0.628-7.234-0.961-10.98-0.961
				c-34.528,0-62.51,27.99-62.51,62.51c0,13.189,4.086,25.432,11.063,35.511c4.215,6.099,9.489,11.411,15.55,15.671
				c10.162,7.136,22.542,11.328,35.897,11.328c34.52,0,62.502-27.99,62.502-62.51c0-15.497-5.645-29.677-14.975-40.596
				c-0.818-0.956-1.664-1.887-2.537-2.792 M337.634,344.211c-11.161,0-21.505-3.504-29.995-9.466
				c-5.062-3.556-9.466-7.998-12.985-13.09c-5.834-8.43-9.247-18.652-9.247-29.67c0-28.845,23.382-52.219,52.226-52.219
				c3.133,0,6.197,0.272,9.171,0.802c7.711,1.369,14.839,4.426,20.983,8.777c3.534,2.505,6.742,5.441,9.549,8.725
				c7.809,9.126,12.516,20.968,12.516,33.915C389.853,320.829,366.471,344.211,337.634,344.211z"/>
			<path style="fill:none;stroke:#263238;stroke-linecap:round;stroke-linejoin:round;stroke-miterlimit:10;" d="M302.163,232.945
				c10.36-6.238,22.497-9.827,35.47-9.827v6.356c-10.175,0-19.781,2.431-28.271,6.743"/>
			<path style="fill:none;stroke:#263238;stroke-linecap:round;stroke-linejoin:round;stroke-miterlimit:10;" d="M302.782,240.084
				c-16.683,11.225-27.658,30.282-27.658,51.901c0,13.189,4.086,25.432,11.063,35.511l-5.229,3.609
				c-7.68-11.108-12.19-24.585-12.19-39.121c0-22.841,11.123-43.087,28.247-55.615"/>
			<path style="fill:none;stroke:#263238;stroke-linecap:round;stroke-linejoin:round;stroke-miterlimit:10;" d="M337.634,239.766
				v4.359c-26.431,0-47.86,21.429-47.86,47.86c0,10.102,3.125,19.469,8.475,27.188l-3.594,2.482
				c-5.834-8.43-9.247-18.652-9.247-29.67C285.407,263.14,308.789,239.766,337.634,239.766z"/>
			<path style="fill:none;stroke:#263238;stroke-linecap:round;stroke-linejoin:round;stroke-miterlimit:10;" d="M367.788,249.345
				l-2.52,3.564c-5.63-3.995-12.16-6.795-19.227-8.051l0.764-4.29C354.515,241.937,361.643,244.994,367.788,249.345z"/>
			<path style="fill:none;stroke:#263238;stroke-linecap:round;stroke-linejoin:round;stroke-miterlimit:10;" d="M377.398,235.763
				l-3.67,5.183c-7.355-5.214-15.883-8.876-25.114-10.51l1.112-6.25C359.895,225.986,369.293,230.019,377.398,235.763z"/>
			<path style="fill:none;stroke:#263238;stroke-linecap:round;stroke-linejoin:round;stroke-miterlimit:10;" d="M333.387,360.721
				c-13.09-0.797-25.191-5.256-35.298-12.356l3.647-5.198c10.162,7.136,22.542,11.328,35.897,11.328
				c34.52,0,62.502-27.99,62.502-62.51c0-15.497-5.645-29.677-14.975-40.596l4.828-4.124c10.291,12.031,16.503,27.649,16.503,44.72
				c0,36.906-29.03,67.035-65.503,68.786"/>
		</g>
	</g>
	<g>
		<path style="fill:none;stroke:#263238;stroke-linecap:round;stroke-linejoin:round;stroke-miterlimit:10;" d="M433.037,390.905
			c2.34-0.663,4.597-1.612,6.709-2.83c3.671-2.118,6.912-5.044,9.428-8.664c0.971-1.396,1.831-2.899,2.569-4.501
			c6.789-14.751,0.34-32.209-14.411-38.999c-5.634-2.593-11.665-3.254-17.349-2.255c-3.432,0.601-6.74,1.807-9.751,3.559
			c-5.048,2.938-9.274,7.403-11.901,13.111c-6.788,14.747-0.334,32.207,14.416,38.997
			C419.369,392.37,426.533,392.751,433.037,390.905z M398.166,360.58c0.235-3.108,1.018-6.228,2.398-9.226
			c2.408-5.232,6.279-9.321,10.907-12.011c2.758-1.61,5.789-2.714,8.935-3.264c5.206-0.919,10.732-0.312,15.898,2.065
			c13.516,6.221,19.431,22.224,13.21,35.74c-0.675,1.467-1.464,2.843-2.354,4.126c-2.306,3.319-5.275,5.999-8.643,7.937
			c-1.937,1.12-4.003,1.993-6.151,2.594c-5.957,1.694-12.525,1.344-18.592-1.449c-9.204-4.236-14.883-13.008-15.605-22.442"/>
		<path style="fill:none;stroke:#263238;stroke-linecap:round;stroke-linejoin:round;stroke-miterlimit:10;" d="M433.037,390.905
			c2.34-0.663,4.597-1.612,6.709-2.83c3.671-2.118,6.912-5.044,9.428-8.664c0.971-1.396,1.831-2.899,2.569-4.501
			c6.789-14.751,0.34-32.209-14.411-38.999c-5.634-2.593-11.665-3.254-17.349-2.255c-3.432,0.601-6.74,1.807-9.751,3.559
			c-5.048,2.938-9.274,7.403-11.901,13.111c-6.788,14.747-0.334,32.207,14.416,38.997
			C419.369,392.37,426.533,392.751,433.037,390.905z"/>
		<g>
			<path style="fill:none;stroke:#263238;stroke-linecap:round;stroke-linejoin:round;stroke-miterlimit:10;" d="M441.015,393.973
				c0.55-0.28,1.093-0.574,1.628-0.883c4.397-2.534,8.277-6.033,11.286-10.369c1.16-1.675,2.194-3.473,3.076-5.389
				c8.127-17.657,0.4-38.555-17.253-46.68c-6.745-3.104-13.967-3.897-20.764-2.701c-4.111,0.72-8.069,2.167-11.674,4.263
				c-6.041,3.517-11.099,8.861-14.242,15.691c-8.125,17.653-0.398,38.551,17.255,46.676c7.925,3.648,16.505,4.099,24.285,1.898
				c0.682-0.193,1.357-0.407,2.025-0.64 M398.331,350.326c2.627-5.708,6.854-10.173,11.901-13.111
				c3.01-1.752,6.318-2.958,9.751-3.559c5.684-0.999,11.715-0.338,17.349,2.255c14.751,6.789,21.2,24.248,14.411,38.999
				c-0.737,1.602-1.598,3.105-2.569,4.501c-2.515,3.621-5.756,6.546-9.428,8.664c-2.113,1.217-4.369,2.167-6.709,2.83
				c-6.505,1.845-13.668,1.465-20.289-1.582C397.997,382.534,391.544,365.073,398.331,350.326z"/>
			<path style="fill:none;stroke:#263238;stroke-linecap:round;stroke-linejoin:round;stroke-miterlimit:10;" d="M463.58,358.377
				c0.751,6.766-0.27,13.817-3.324,20.452l-3.251-1.496c2.395-5.203,3.413-10.688,3.206-16.044"/>
			<path style="fill:none;stroke:#263238;stroke-linecap:round;stroke-linejoin:round;stroke-miterlimit:10;" d="M459.784,357.013
				c-1.813-11.174-8.976-21.271-20.031-26.36c-6.745-3.104-13.967-3.897-20.764-2.701l-0.615-3.523
				c7.488-1.313,15.441-0.447,22.875,2.974c11.681,5.376,19.416,15.83,21.792,27.535"/>
			<path style="fill:none;stroke:#263238;stroke-linecap:round;stroke-linejoin:round;stroke-miterlimit:10;" d="M451.743,374.91
				l-2.229-1.026c6.221-13.516,0.307-29.519-13.21-35.74c-5.166-2.378-10.692-2.985-15.898-2.065l-0.423-2.422
				c5.684-0.999,11.715-0.338,17.349,2.255C452.083,342.701,458.533,360.16,451.743,374.91z"/>
			<path style="fill:none;stroke:#263238;stroke-linecap:round;stroke-linejoin:round;stroke-miterlimit:10;" d="M439.747,388.076
				l-1.229-2.128c3.368-1.939,6.337-4.619,8.643-7.937l2.014,1.401C446.659,383.032,443.418,385.958,439.747,388.076z"/>
			<path style="fill:none;stroke:#263238;stroke-linecap:round;stroke-linejoin:round;stroke-miterlimit:10;" d="M444.43,396.187
				l-1.787-3.097c4.397-2.534,8.277-6.033,11.286-10.369l2.935,2.04C453.55,389.538,449.275,393.395,444.43,396.187z"/>
			<path style="fill:none;stroke:#263238;stroke-linecap:round;stroke-linejoin:round;stroke-miterlimit:10;" d="M390.888,344.268
				c3.489-6.507,8.617-11.645,14.627-15.142l1.8,3.089c-6.041,3.517-11.099,8.861-14.242,15.691
				c-8.125,17.653-0.398,38.551,17.255,46.676c7.925,3.648,16.505,4.099,24.285,1.898l0.973,3.439
				c-8.575,2.431-18.024,1.931-26.754-2.087c-18.873-8.687-27.448-30.624-19.758-49.688"/>
		</g>
	</g>
</g>
<g id="Rocket">
	<g>
		<path style="fill:none;stroke:#263238;stroke-linecap:round;stroke-linejoin:round;stroke-miterlimit:10;" d="M471.308,213.117
			c0.011-2.83-1.369-5.345-3.503-6.884l-9.86-0.039c-2.146,1.521-3.546,4.026-3.557,6.856c-0.01,2.5,1.081,4.744,2.805,6.301
			l-0.03,0.03c0,0,1.354,1.415,2.456,3.46l3.003,22.427l3.246-22.232c1.138-2.126,2.574-3.61,2.574-3.61l-0.01-0.01
			C470.179,217.872,471.298,215.626,471.308,213.117z M462.831,217.243c-0.53-0.002-3.515-3.904-3.507-5.844
			c0.008-1.95,1.6-5.034,3.55-5.026c1.95,0.008,3.518,3.104,3.51,5.054C466.376,213.367,463.241,217.245,462.831,217.243z"/>
		<path style="fill:none;stroke:#263238;stroke-linecap:round;stroke-linejoin:round;stroke-miterlimit:10;" d="M398.038,212.829
			c0.011-2.83-1.369-5.345-3.503-6.884l-9.86-0.039c-2.136,1.522-3.536,4.026-3.547,6.856c-0.01,2.5,1.071,4.744,2.795,6.301
			l-0.02,0.03c0,0,1.345,1.415,2.447,3.46l2.953,21.249l3.306-21.054c1.128-2.126,2.564-3.61,2.564-3.61l-0.01-0.01
			C396.919,217.585,398.028,215.339,398.038,212.829z M389.562,216.956c-0.53-0.002-3.505-3.904-3.497-5.844
			c0.008-1.95,1.59-5.034,3.54-5.026c1.95,0.008,3.518,3.104,3.51,5.054C393.107,213.08,389.982,216.958,389.562,216.956z"/>
		<path style="fill:none;stroke:#263238;stroke-linecap:round;stroke-linejoin:round;stroke-miterlimit:10;" d="M439.93,215.023
			c0.017-4.35-2.038-8.218-5.238-10.681l-16.16-0.063c-3.23,2.427-5.325,6.279-5.342,10.639c-0.016,3.96,1.701,7.507,4.421,9.967
			l-0.03,0.05c0,0,4.571,4.798,5.799,10.503l2.873,31.08l3.389-31.525c1.401-5.475,5.759-9.988,5.759-9.988l-0.01-0.02
			C438.16,222.547,439.914,218.993,439.93,215.023z M426.534,221.561c-0.84-0.003-5.556-6.172-5.544-9.252
			c0.012-3.08,2.522-5.57,5.602-5.558c3.08,0.012,5.57,2.522,5.558,5.602C432.138,215.433,427.194,221.564,426.534,221.561z"/>
		<path style="fill:none;stroke:#263238;stroke-linecap:round;stroke-linejoin:round;stroke-miterlimit:10;" d="M393.115,211.14
			c-0.008,1.94-3.133,5.818-3.553,5.816c-0.53-0.002-3.505-3.904-3.497-5.844c0.008-1.95,1.59-5.034,3.54-5.026
			C391.555,206.094,393.122,209.19,393.115,211.14z"/>
		<path style="fill:none;stroke:#263238;stroke-linecap:round;stroke-linejoin:round;stroke-miterlimit:10;" d="M466.384,211.427
			c-0.008,1.94-3.143,5.818-3.553,5.816c-0.53-0.002-3.515-3.904-3.507-5.844c0.008-1.95,1.6-5.034,3.55-5.026
			C464.824,206.381,466.392,209.477,466.384,211.427z"/>
		<g>
			<path style="fill:none;stroke:#263238;stroke-linecap:round;stroke-linejoin:round;stroke-miterlimit:10;" d="M411.218,169.451
				l-14.831,12.952l-0.654,11.268l16.5-7.705L411.218,169.451z"/>
			<path style="fill:none;stroke:#263238;stroke-linecap:round;stroke-linejoin:round;stroke-miterlimit:10;" d="M397.481,163.557
				l-1.094,18.846l-0.654,11.268l-0.193,3.339l-11.76-0.046l-1.679-33.467c-0.019-0.31-0.018-0.62,0.014-0.92
				c0.145-1.289,0.694-3.657,1.514-6.134l12.38,0.049c0.8,2.483,1.331,4.855,1.466,6.146
				C397.504,162.937,397.503,163.247,397.481,163.557z"/>
			<path style="fill:none;stroke:#263238;stroke-linecap:round;stroke-linejoin:round;stroke-miterlimit:10;" d="M395.999,156.491
				l-12.36-0.049c0.01-0.05,0.03-0.1,0.041-0.14c0.212-0.629,0.445-1.268,0.697-1.897c0.091-0.23,0.182-0.459,0.273-0.679
				c0.081-0.19,0.161-0.379,0.242-0.559c0.323-0.739,0.676-1.437,1.048-2.086c0.131-0.22,0.262-0.439,0.393-0.649
				c0.191-0.299,0.382-0.578,0.573-0.848c0.08-0.1,0.161-0.209,0.241-0.299c0.211-0.249,0.412-0.478,0.623-0.678
				c0.452-0.418,0.913-0.727,1.373-0.875c0.1-0.03,0.2-0.059,0.31-0.079c0.02-0.01,0.04-0.01,0.06-0.01
				c0.11-0.02,0.22-0.029,0.34-0.029c0.12,0.001,0.23,0.011,0.34,0.031c0.02,0,0.04,0,0.06,0.01c0.11,0.02,0.21,0.051,0.31,0.081
				c0.459,0.152,0.918,0.464,1.367,0.885c0.209,0.201,0.408,0.432,0.617,0.682c0.08,0.09,0.159,0.201,0.239,0.301
				c0.189,0.271,0.378,0.551,0.567,0.852c0.129,0.211,0.258,0.431,0.388,0.652c0.367,0.651,0.715,1.353,1.032,2.094
				c0.079,0.18,0.158,0.371,0.238,0.561c0.089,0.22,0.178,0.451,0.267,0.681c0.247,0.621,0.475,1.262,0.682,1.903
				C395.969,156.391,395.989,156.441,395.999,156.491z"/>
			<path style="fill:none;stroke:#263238;stroke-linecap:round;stroke-linejoin:round;stroke-miterlimit:10;" d="M383.629,156.442
				c0.02-0.05,0.03-0.09,0.051-0.14c-0.01,0.04-0.03,0.09-0.041,0.14H383.629z"/>
			<path style="fill:none;stroke:#263238;stroke-linecap:round;stroke-linejoin:round;stroke-miterlimit:10;" d="M396.009,156.491
				h-0.01c-0.01-0.05-0.03-0.1-0.039-0.14C395.979,156.401,395.989,156.441,396.009,156.491z"/>
			<polygon style="fill:none;stroke:#263238;stroke-linecap:round;stroke-linejoin:round;stroke-miterlimit:10;" points="
				395.54,197.009 395.025,205.947 384.225,205.905 383.78,196.963 			"/>
		</g>
		<g>
			<path style="fill:none;stroke:#263238;stroke-linecap:round;stroke-linejoin:round;stroke-miterlimit:10;" d="M456.737,182.639
				l-14.42-12.787l-1.134,16.376l16.12,7.683L456.737,182.639z"/>
			<path style="fill:none;stroke:#263238;stroke-linecap:round;stroke-linejoin:round;stroke-miterlimit:10;" d="M471.171,163.846
				l-1.941,33.453l-11.76-0.046l-0.167-3.341l-0.566-11.272l-0.946-18.854c-0.019-0.31-0.028-0.62,0.013-0.92
				c0.145-1.289,0.694-3.657,1.514-6.134l12.38,0.049c0.8,2.483,1.331,4.855,1.466,6.146
				C471.193,163.226,471.192,163.536,471.171,163.846z"/>
			<polygon style="fill:none;stroke:#263238;stroke-linecap:round;stroke-linejoin:round;stroke-miterlimit:10;" points="
				469.23,197.298 468.714,206.236 457.915,206.194 457.47,197.252 			"/>
			<path style="fill:none;stroke:#263238;stroke-linecap:round;stroke-linejoin:round;stroke-miterlimit:10;" d="M469.689,156.78
				l-12.36-0.048c0.01-0.05,0.03-0.1,0.041-0.14c0.354-1.049,0.758-2.127,1.212-3.135c0.101-0.22,0.202-0.439,0.303-0.659
				c0.181-0.379,0.373-0.749,0.564-1.098c0.091-0.18,0.191-0.359,0.292-0.529c0.725-1.227,1.519-2.224,2.351-2.771
				c0.09-0.07,0.19-0.129,0.291-0.179c0.16-0.089,0.321-0.159,0.481-0.208c0.09-0.03,0.18-0.049,0.28-0.069
				c0.02-0.01,0.04-0.01,0.06-0.01c0.11-0.02,0.23-0.029,0.34-0.029c0.11,0,0.23,0.011,0.34,0.031c0.02,0,0.04,0,0.06,0.01
				c0.1,0.02,0.19,0.041,0.28,0.071c0.16,0.051,0.319,0.121,0.479,0.212c0.1,0.05,0.2,0.111,0.289,0.181
				c0.828,0.553,1.614,1.556,2.329,2.789c0.099,0.17,0.199,0.351,0.288,0.531c0.189,0.351,0.377,0.721,0.556,1.102
				c0.099,0.22,0.198,0.441,0.297,0.661c0.446,1.012,0.842,2.093,1.188,3.145C469.659,156.68,469.679,156.73,469.689,156.78z"/>
			<path style="fill:none;stroke:#263238;stroke-linecap:round;stroke-linejoin:round;stroke-miterlimit:10;" d="M457.319,156.731
				c0.02-0.05,0.03-0.09,0.051-0.14c-0.01,0.04-0.03,0.09-0.041,0.14L457.319,156.731z"/>
			<path style="fill:none;stroke:#263238;stroke-linecap:round;stroke-linejoin:round;stroke-miterlimit:10;" d="M469.698,156.78
				l-0.01,0c-0.01-0.05-0.03-0.1-0.04-0.14C469.669,156.69,469.679,156.73,469.698,156.78z"/>
		</g>
		<path style="fill:none;stroke:#263238;stroke-linecap:round;stroke-linejoin:round;stroke-miterlimit:10;" d="M432.15,212.353
			c-0.012,3.08-4.956,9.211-5.616,9.208c-0.84-0.003-5.556-6.172-5.544-9.252c0.012-3.08,2.522-5.57,5.602-5.558
			C429.672,206.763,432.162,209.273,432.15,212.353z"/>
		<g>
			<path style="fill:none;stroke:#263238;stroke-linecap:round;stroke-linejoin:round;stroke-miterlimit:10;" d="M447.173,97.021
				c-0.453-4.442-2.686-13.761-6.053-22.214c0.109,0.3,0.228,0.601,0.337,0.901l-28.63-0.112
				c-3.252,8.177-5.397,16.989-5.884,21.267c-0.093,0.81-0.096,1.61-0.019,2.41l4.295,70.177l1.015,16.514l0.312,4.531l28.3,0.111
				l0.337-4.379l1.134-16.376l4.866-70.421C447.256,98.631,447.26,97.831,447.173,97.021z"/>
		</g>
		<polygon style="fill:none;stroke:#263238;stroke-linecap:round;stroke-linejoin:round;stroke-miterlimit:10;" points="
			440.846,190.607 436.562,204.35 416.672,204.272 412.546,190.496 		"/>
		<path style="fill:none;stroke:#263238;stroke-linecap:round;stroke-linejoin:round;stroke-miterlimit:10;" d="M441.456,75.708
			l-28.63-0.112c0.061-0.17,0.131-0.329,0.192-0.499c1.788-4.623,3.906-9.055,6.268-12.356c2.433-3.42,5.112-5.64,7.932-5.629
			c5.25,0.021,9.989,7.819,13.505,16.693c0.139,0.331,0.267,0.661,0.396,1.002C441.229,75.107,441.348,75.408,441.456,75.708z"/>
		
			<line style="fill:none;stroke:#263238;stroke-linecap:round;stroke-linejoin:round;stroke-miterlimit:10;" x1="407.885" y1="160.868" x2="407.919" y2="161.416"/>
		
			<line style="fill:none;stroke:#263238;stroke-linecap:round;stroke-linejoin:round;stroke-miterlimit:10;" x1="407.894" y1="161.008" x2="407.919" y2="161.416"/>
		
			<line style="fill:none;stroke:#263238;stroke-linecap:round;stroke-linejoin:round;stroke-miterlimit:10;" x1="407.908" y1="161.241" x2="407.919" y2="161.416"/>
		<g>
			
				<ellipse transform="matrix(0.3935 -0.9193 0.9193 0.3935 159.71 459.2235)" style="fill:none;stroke:#263238;stroke-linecap:round;stroke-linejoin:round;stroke-miterlimit:10;" cx="427.886" cy="108.573" rx="11.771" ry="11.771"/>
			<path style="fill:none;stroke:#263238;stroke-linecap:round;stroke-linejoin:round;stroke-miterlimit:10;" d="M434.712,108.6
				c-0.015,3.77-3.083,6.814-6.853,6.799c-3.77-0.015-6.814-3.083-6.799-6.853c0.015-3.77,3.083-6.814,6.853-6.799
				C431.682,101.761,434.727,104.829,434.712,108.6z"/>
		</g>
		<g>
			
				<ellipse transform="matrix(0.0258 -0.9997 0.9997 0.0258 277.766 563.0748)" style="fill:none;stroke:#263238;stroke-linecap:round;stroke-linejoin:round;stroke-miterlimit:10;" cx="427.766" cy="139.031" rx="11.771" ry="11.771"/>
			<path style="fill:none;stroke:#263238;stroke-linecap:round;stroke-linejoin:round;stroke-miterlimit:10;" d="M434.592,139.057
				c-0.015,3.77-3.083,6.814-6.853,6.799c-3.77-0.015-6.814-3.083-6.799-6.853c0.015-3.77,3.083-6.814,6.853-6.799
				S434.607,135.288,434.592,139.057z"/>
		</g>
	</g>
</g>
<g id="Videos">
	<g>
		<g>
			
				<rect x="253.822" y="43.975" style="fill:none;stroke:#263238;stroke-linecap:round;stroke-linejoin:round;stroke-miterlimit:10;" width="100.624" height="60.916"/>
			
				<rect x="253.822" y="97.246" style="fill:none;stroke:#263238;stroke-linecap:round;stroke-linejoin:round;stroke-miterlimit:10;" width="100.624" height="7.645"/>
			
				<rect x="253.822" y="99.871" style="fill:none;stroke:#263238;stroke-linecap:round;stroke-linejoin:round;stroke-miterlimit:10;" width="100.624" height="2.395"/>
			<polygon style="fill:none;stroke:#263238;stroke-linecap:round;stroke-linejoin:round;stroke-miterlimit:10;" points="
				313.118,72.627 295.15,62.253 295.15,83.001 			"/>
		</g>
		<g>
			<polygon style="fill:none;stroke:#263238;stroke-linecap:round;stroke-linejoin:round;stroke-miterlimit:10;" points="
				354.555,94.2 354.555,104.901 307.958,104.901 307.958,138.137 380.535,138.137 380.535,94.2 			"/>
			
				<rect x="307.958" y="132.623" style="fill:none;stroke:#263238;stroke-linecap:round;stroke-linejoin:round;stroke-miterlimit:10;" width="72.577" height="5.514"/>
			
				<rect x="307.958" y="134.516" style="fill:none;stroke:#263238;stroke-linecap:round;stroke-linejoin:round;stroke-miterlimit:10;" width="72.577" height="1.727"/>
			<polygon style="fill:none;stroke:#263238;stroke-linecap:round;stroke-linejoin:round;stroke-miterlimit:10;" points="
				350.726,114.866 337.766,107.383 337.766,122.348 			"/>
		</g>
	</g>
</g>
<g id="Keyboard">
	<g>
		
			<rect x="36.18" y="274.925" style="fill:none;stroke:#263238;stroke-linecap:round;stroke-linejoin:round;stroke-miterlimit:10;" width="116.089" height="40.649"/>
		<g>
			
				<rect x="40.052" y="279.163" style="fill:none;stroke:#263238;stroke-linecap:round;stroke-linejoin:round;stroke-miterlimit:10;" width="5.316" height="5.316"/>
			
				<rect x="48.165" y="279.163" style="fill:none;stroke:#263238;stroke-linecap:round;stroke-linejoin:round;stroke-miterlimit:10;" width="5.316" height="5.316"/>
			
				<rect x="56.279" y="279.163" style="fill:none;stroke:#263238;stroke-linecap:round;stroke-linejoin:round;stroke-miterlimit:10;" width="5.316" height="5.316"/>
			
				<rect x="64.393" y="279.163" style="fill:none;stroke:#263238;stroke-linecap:round;stroke-linejoin:round;stroke-miterlimit:10;" width="5.316" height="5.316"/>
			
				<rect x="72.506" y="279.163" style="fill:none;stroke:#263238;stroke-linecap:round;stroke-linejoin:round;stroke-miterlimit:10;" width="5.316" height="5.316"/>
			
				<rect x="80.62" y="279.163" style="fill:none;stroke:#263238;stroke-linecap:round;stroke-linejoin:round;stroke-miterlimit:10;" width="5.316" height="5.316"/>
			
				<rect x="88.733" y="279.163" style="fill:none;stroke:#263238;stroke-linecap:round;stroke-linejoin:round;stroke-miterlimit:10;" width="5.316" height="5.316"/>
			
				<rect x="96.847" y="279.163" style="fill:none;stroke:#263238;stroke-linecap:round;stroke-linejoin:round;stroke-miterlimit:10;" width="5.316" height="5.316"/>
			
				<rect x="104.96" y="279.163" style="fill:none;stroke:#263238;stroke-linecap:round;stroke-linejoin:round;stroke-miterlimit:10;" width="5.316" height="5.316"/>
			
				<rect x="113.074" y="279.163" style="fill:none;stroke:#263238;stroke-linecap:round;stroke-linejoin:round;stroke-miterlimit:10;" width="5.316" height="5.316"/>
			
				<rect x="121.188" y="279.163" style="fill:none;stroke:#263238;stroke-linecap:round;stroke-linejoin:round;stroke-miterlimit:10;" width="5.316" height="5.316"/>
		</g>
		<g>
			
				<rect x="40.052" y="286.857" style="fill:none;stroke:#263238;stroke-linecap:round;stroke-linejoin:round;stroke-miterlimit:10;" width="5.316" height="5.316"/>
			
				<rect x="48.165" y="286.857" style="fill:none;stroke:#263238;stroke-linecap:round;stroke-linejoin:round;stroke-miterlimit:10;" width="5.316" height="5.316"/>
			
				<rect x="56.279" y="286.857" style="fill:none;stroke:#263238;stroke-linecap:round;stroke-linejoin:round;stroke-miterlimit:10;" width="5.316" height="5.316"/>
			
				<rect x="64.393" y="286.857" style="fill:none;stroke:#263238;stroke-linecap:round;stroke-linejoin:round;stroke-miterlimit:10;" width="5.316" height="5.316"/>
			
				<rect x="72.506" y="286.857" style="fill:none;stroke:#263238;stroke-linecap:round;stroke-linejoin:round;stroke-miterlimit:10;" width="5.316" height="5.316"/>
			
				<rect x="80.62" y="286.857" style="fill:none;stroke:#263238;stroke-linecap:round;stroke-linejoin:round;stroke-miterlimit:10;" width="5.316" height="5.316"/>
			
				<rect x="88.733" y="286.857" style="fill:none;stroke:#263238;stroke-linecap:round;stroke-linejoin:round;stroke-miterlimit:10;" width="5.316" height="5.316"/>
			
				<rect x="96.847" y="286.857" style="fill:none;stroke:#263238;stroke-linecap:round;stroke-linejoin:round;stroke-miterlimit:10;" width="5.316" height="5.316"/>
			
				<rect x="104.96" y="286.857" style="fill:none;stroke:#263238;stroke-linecap:round;stroke-linejoin:round;stroke-miterlimit:10;" width="5.316" height="5.316"/>
			
				<rect x="113.074" y="286.857" style="fill:none;stroke:#263238;stroke-linecap:round;stroke-linejoin:round;stroke-miterlimit:10;" width="5.316" height="5.316"/>
			
				<rect x="121.188" y="286.857" style="fill:none;stroke:#263238;stroke-linecap:round;stroke-linejoin:round;stroke-miterlimit:10;" width="5.316" height="5.316"/>
		</g>
		<g>
			
				<rect x="40.052" y="294.551" style="fill:none;stroke:#263238;stroke-linecap:round;stroke-linejoin:round;stroke-miterlimit:10;" width="5.316" height="5.316"/>
			
				<rect x="48.165" y="294.551" style="fill:none;stroke:#263238;stroke-linecap:round;stroke-linejoin:round;stroke-miterlimit:10;" width="5.316" height="5.316"/>
			
				<rect x="56.279" y="294.551" style="fill:none;stroke:#263238;stroke-linecap:round;stroke-linejoin:round;stroke-miterlimit:10;" width="5.316" height="5.316"/>
			
				<rect x="64.393" y="294.551" style="fill:none;stroke:#263238;stroke-linecap:round;stroke-linejoin:round;stroke-miterlimit:10;" width="5.316" height="5.316"/>
			
				<rect x="72.506" y="294.551" style="fill:none;stroke:#263238;stroke-linecap:round;stroke-linejoin:round;stroke-miterlimit:10;" width="5.316" height="5.316"/>
			
				<rect x="80.62" y="294.551" style="fill:none;stroke:#263238;stroke-linecap:round;stroke-linejoin:round;stroke-miterlimit:10;" width="5.316" height="5.316"/>
			
				<rect x="88.733" y="294.551" style="fill:none;stroke:#263238;stroke-linecap:round;stroke-linejoin:round;stroke-miterlimit:10;" width="5.316" height="5.316"/>
			
				<rect x="96.847" y="294.551" style="fill:none;stroke:#263238;stroke-linecap:round;stroke-linejoin:round;stroke-miterlimit:10;" width="5.316" height="5.316"/>
			
				<rect x="104.96" y="294.551" style="fill:none;stroke:#263238;stroke-linecap:round;stroke-linejoin:round;stroke-miterlimit:10;" width="5.316" height="5.316"/>
			
				<rect x="113.074" y="294.551" style="fill:none;stroke:#263238;stroke-linecap:round;stroke-linejoin:round;stroke-miterlimit:10;" width="5.316" height="5.316"/>
			
				<rect x="121.188" y="294.551" style="fill:none;stroke:#263238;stroke-linecap:round;stroke-linejoin:round;stroke-miterlimit:10;" width="5.316" height="5.316"/>
		</g>
		<g>
			
				<rect x="40.052" y="302.245" style="fill:none;stroke:#263238;stroke-linecap:round;stroke-linejoin:round;stroke-miterlimit:10;" width="5.316" height="5.316"/>
			
				<rect x="48.165" y="302.245" style="fill:none;stroke:#263238;stroke-linecap:round;stroke-linejoin:round;stroke-miterlimit:10;" width="5.316" height="5.316"/>
			<polygon style="fill:none;stroke:#263238;stroke-linecap:round;stroke-linejoin:round;stroke-miterlimit:10;" points="
				92.37,302.245 88.733,302.245 85.935,302.245 80.62,302.245 77.822,302.245 72.506,302.245 69.708,302.245 64.393,302.245 
				56.279,302.245 56.279,307.56 64.393,307.56 69.708,307.56 72.506,307.56 77.822,307.56 80.62,307.56 85.935,307.56 
				88.733,307.56 92.37,307.56 94.049,307.56 94.049,302.245 			"/>
			
				<rect x="96.847" y="302.245" style="fill:none;stroke:#263238;stroke-linecap:round;stroke-linejoin:round;stroke-miterlimit:10;" width="5.316" height="5.316"/>
			
				<rect x="104.96" y="302.245" style="fill:none;stroke:#263238;stroke-linecap:round;stroke-linejoin:round;stroke-miterlimit:10;" width="5.316" height="5.316"/>
			
				<rect x="113.074" y="302.245" style="fill:none;stroke:#263238;stroke-linecap:round;stroke-linejoin:round;stroke-miterlimit:10;" width="5.316" height="5.316"/>
			
				<rect x="121.188" y="302.245" style="fill:none;stroke:#263238;stroke-linecap:round;stroke-linejoin:round;stroke-miterlimit:10;" width="5.316" height="5.316"/>
		</g>
		
			<rect x="129.348" y="278.324" style="fill:none;stroke:#263238;stroke-linecap:round;stroke-linejoin:round;stroke-miterlimit:10;" width="19.864" height="11.751"/>
		<path style="fill:none;stroke:#263238;stroke-linecap:round;stroke-linejoin:round;stroke-miterlimit:10;" d="M147.393,300.986
			c0-4.481-3.632-8.114-8.114-8.114c-4.481,0-8.113,3.633-8.113,8.114c0,4.481,3.632,8.114,8.113,8.114
			C143.761,309.099,147.393,305.467,147.393,300.986z"/>
	</g>
</g>
<g id="Chart">
	<g>
		<g>
			
				<rect x="36.18" y="338.531" style="fill:#92E3A9;stroke:#263238;stroke-linecap:round;stroke-linejoin:round;stroke-miterlimit:10;" width="67.412" height="5.049"/>
			
				<rect x="36.18" y="347.509" style="fill:#FFFFFF;stroke:#263238;stroke-linecap:round;stroke-linejoin:round;stroke-miterlimit:10;" width="47.571" height="5.049"/>
			
				<rect x="36.18" y="374.443" style="fill:#92E3A9;stroke:#263238;stroke-linecap:round;stroke-linejoin:round;stroke-miterlimit:10;" width="47.571" height="5.049"/>
			
				<rect x="36.18" y="356.487" style="fill:#92E3A9;stroke:#263238;stroke-linecap:round;stroke-linejoin:round;stroke-miterlimit:10;" width="80.79" height="5.049"/>
			
				<rect x="36.18" y="365.465" style="fill:#FFFFFF;stroke:#263238;stroke-linecap:round;stroke-linejoin:round;stroke-miterlimit:10;" width="97.848" height="5.049"/>
		</g>
		<line style="fill:none;stroke:#263238;stroke-miterlimit:10;" x1="37.115" y1="392.818" x2="92.472" y2="392.818"/>
		<line style="fill:none;stroke:#263238;stroke-miterlimit:10;" x1="37.115" y1="401.843" x2="114.134" y2="401.843"/>
	</g>
</g>
<g id="Floor">
	<g>
		<path style="fill:#263238;stroke:#263238;stroke-linecap:round;stroke-linejoin:round;stroke-miterlimit:10;" d="M395.52,429.227
			c-18.222-13.01-74.486-22.489-141.082-22.489c-66.596,0-122.859,9.479-141.082,22.489h-6.217v9.102
			c0,17.447,65.948,31.591,147.298,31.591c81.351,0,147.299-14.144,147.299-31.591v-9.102H395.52z"/>
		
			<ellipse style="fill:#92E3A9;stroke:#263238;stroke-linecap:round;stroke-linejoin:round;stroke-miterlimit:10;" cx="254.438" cy="429.227" rx="147.299" ry="31.591"/>
	</g>
</g>
<g id="Character_2">
	<g>
		<path style="fill:#263238;stroke:#263238;stroke-linecap:round;stroke-linejoin:round;stroke-miterlimit:10;" d="M266.603,285.954
			c0,0-0.135,29.192,2.177,41.738c2.311,12.546,5.613,38.299,5.943,42.261c0.33,3.962,2.311,22.781,2.641,27.734
			c0.33,4.953,2.971,8.584,2.971,8.584l-0.33,3.962c0,0-1.981-0.33-2.311,1.651c-0.33,1.981-0.33,4.952-0.33,4.952
			s-7.924,6.273-10.895,10.235s1.321,5.283,8.254,6.273c6.934,0.99,10.565-2.641,14.197-5.283c3.632-2.641,6.933-3.632,7.594-5.943
			c0.66-2.311,0.66-6.934,0.66-6.934s0-3.302,0-6.273s-0.66-9.575-0.66-9.575s-2.311-46.883-2.641-50.515
			c-0.33-3.632-0.991-18.159-0.66-19.81c0.33-1.651,0.33-15.848,0.33-15.848s6.603,43.251,7.594,46.553
			c0.991,3.302,1.651,17.499,4.292,26.413c2.641,8.914,4.292,25.092,4.292,25.092s-1.651,3.302-1.321,5.613
			c0.33,2.311,1.651,7.594,1.651,7.594s5.613,3.302,8.254,6.934c2.641,3.632,12.546,5.613,16.508,4.622
			c3.962-0.991,2.641-7.264,0.33-10.896c-2.311-3.632-4.952-6.273-5.943-7.594c-0.991-1.321-1.321-3.302-1.651-5.613
			c-0.33-2.311-1.981-3.962-2.311-4.953c-0.33-0.99-1.651-4.952-1.321-8.584c0.33-3.632-0.66-58.109-1.321-65.042
			c-0.66-6.933,0.991-36.648-3.302-49.525l-49.855-3.632L266.603,285.954z"/>
		<g>
			<path style="fill:#92E3A9;stroke:#263238;stroke-linecap:round;stroke-linejoin:round;stroke-miterlimit:10;" d="
				M275.895,201.965c0,0-9.903,5.012-13.081,6.357c-3.179,1.345-7.458,3.668-9.903,8.68c-2.445,5.012,0,12.225,0.611,14.182
				c0.611,1.956,3.912,13.203,3.912,13.203s-1.345,9.78-0.122,13.448c1.223,3.668,3.668,4.768,6.113,4.768
				c2.445,0,4.646-1.712,4.646-1.712s0.367,13.204-0.734,16.993c-1.1,3.79-1.712,7.091-0.733,8.069
				c0.978,0.978,17.238,6.846,30.197,5.501c12.959-1.345,22.006-3.056,23.473-4.646c1.467-1.589,1.589-1.1,1.345-2.934
				s-0.978-3.056-0.978-4.279c0-1.222-3.301-23.351-3.179-24.695c0.122-1.345-0.245-5.99-0.245-6.357
				c0-0.367,7.335-6.724,7.947-6.724s6.969,1.345,6.969,1.345s0.978-4.034,0.367-6.235c-0.611-2.201-2.078-3.056-2.078-3.056
				s0.734-1.834,0.245-2.69c-0.489-0.856-2.69-1.712-3.056-1.834c-0.367-0.122-2.812-3.423-2.934-4.279
				c-0.122-0.856-5.257-20.05-7.824-23.962c-2.567-3.912-6.48-6.846-12.226-6.235c-5.746,0.611-11.614,3.301-13.326,3.79
				c-1.712,0.489-6.602,2.445-6.602,2.445L275.895,201.965z"/>
			<path style="fill:#263238;stroke:#263238;stroke-linecap:round;stroke-linejoin:round;stroke-miterlimit:10;" d="M330.42,233.873
				c0,0,0.734-1.834,0.245-2.69c-0.489-0.856-2.69-1.712-3.056-1.834c-0.367-0.122-2.812-3.423-2.934-4.279
				c-0.122-0.856-5.257-20.05-7.824-23.962c-2.567-3.912-6.48-6.846-12.226-6.235c-5.746,0.611-11.614,3.301-13.326,3.79
				c-1.712,0.489-6.602,2.445-6.602,2.445l-8.802,0.856c0,0-9.903,5.012-13.081,6.357c-3.179,1.345-7.458,3.668-9.903,8.68
				c-2.445,5.012,0,12.225,0.611,14.182c0.611,1.956,3.912,13.203,3.912,13.203s-1.345,9.78-0.122,13.448
				c1.223,3.668,3.668,4.768,6.113,4.768s4.646-1.712,4.646-1.712s-0.367-6.724-1.712-11.37c-1.345-4.646-5.379-18.95-5.379-20.05
				c0-1.1,4.035-10.147,7.824-16.015c3.79-5.868,8.68-9.903,8.68-9.903l11.492-2.201c0,0,7.824,4.768,14.548,11.859
				c6.724,7.091,8.313,8.069,8.558,11.247c0.245,3.179,5.135,24.084,5.135,24.084c0-0.367,7.335-6.724,7.947-6.724
				s6.969,1.345,6.969,1.345s0.978-4.034,0.367-6.235C331.887,234.729,330.42,233.873,330.42,233.873z"/>
			<path style="fill:none;stroke:#263238;stroke-linecap:round;stroke-linejoin:round;stroke-miterlimit:10;" d="M306.8,286.232
				c1.869-0.291,3.816-0.641,5.84-1.061"/>
			<path style="fill:none;stroke:#263238;stroke-linecap:round;stroke-linejoin:round;stroke-miterlimit:10;" d="M274.12,284.943
				c0,0,10.264,4.247,30.014,1.67"/>
			<path style="fill:none;stroke:#263238;stroke-linecap:round;stroke-linejoin:round;stroke-miterlimit:10;" d="M310.816,280.384
				c0,0-6.61,2.963-19.146,4.331"/>
		</g>
		<path style="fill:#FFFFFF;stroke:#263238;stroke-linecap:round;stroke-linejoin:round;stroke-miterlimit:10;" d="M271.493,189.984
			c0,0,1.834,8.191,1.467,11.859c-0.367,3.668,1.1,11.614,8.313,11.492c7.213-0.122,10.514-8.68,10.514-10.758
			c0-2.078-1.345-11.492-1.345-11.492s-0.489,2.201-6.479,1.345C277.973,191.573,271.493,189.984,271.493,189.984z"/>
		<polygon style="fill:#263238;stroke:#263238;stroke-linecap:round;stroke-linejoin:round;stroke-miterlimit:10;" points="
			280.317,193.511 273.358,198.923 271.249,191.329 		"/>
		<g>
			<path style="fill:#FFFFFF;stroke:#263238;stroke-linecap:round;stroke-linejoin:round;stroke-miterlimit:10;" d="M260.7,182.643
				c0,0,0.888,2.201,2.233,3.545c1.345,1.345,3.79,0.978,3.79,0.978s2.934,4.768,5.379,6.724c2.445,1.956,9.169,5.379,13.448,5.379
				s6.357-3.545,7.091-6.48c0.734-2.934,1.956-7.091,2.323-11.37c0.367-4.279-2.934-12.715-4.768-15.16
				c-1.834-2.445-3.301-4.401-3.301-4.401s-10.269-1.1-13.57,0.122c-3.301,1.223-6.357,3.179-7.091,4.646
				c-0.733,1.467-1.712,4.034-1.712,5.379s1.345,6.602,1.345,6.968c0,0.367,0.245,0.978-0.122,1.223
				c-0.367,0.244,0.797,3.31,0.797,3.31l-2.631-3.554l-3.056,0.489L260.7,182.643z"/>
			<path style="fill:none;stroke:#263238;stroke-linecap:round;stroke-linejoin:round;stroke-miterlimit:10;" d="M290.443,191.084
				c0,0-4.306,1.915-8.708-1.711"/>
			<path style="fill:#263238;stroke:#263238;stroke-linecap:round;stroke-linejoin:round;stroke-miterlimit:10;" d="
				M266.723,175.552c0,0,0.245-3.668,1.1-4.768s4.034-2.812,5.379-4.034c1.345-1.223,1.712-2.69,1.712-2.69l8.069,0.856
				l10.881,3.668c0,0-1.834-2.201-2.812-3.056c-0.978-0.856-1.834-1.711-1.834-1.711s6.235,0.122,7.947,1.1
				c1.712,0.978,2.445,1.223,2.445,1.223s-2.323-5.012-6.479-7.58c-4.157-2.567-8.68-3.179-8.68-3.179l3.179-1.589
				c0,0-4.034-2.567-11.737-2.078c-7.702,0.489-13.203,3.912-15.404,6.724c-2.201,2.812-4.157,4.89-4.646,7.824
				c-0.489,2.934,1.589,7.58,2.812,8.802c1.223,1.223,3.668,4.646,3.668,4.646l4.646-1.834L266.723,175.552z"/>
			<g>
				<path style="fill:#9C9C9C;stroke:#263238;stroke-linecap:round;stroke-linejoin:round;stroke-miterlimit:10;" d="
					M278.567,182.948c0,0-11.306,0.877-12.024,0.559c-0.719-0.318-1.472-7.056-1.508-7.846c-0.037-0.79,10.694-6.478,10.694-6.478
					L278.567,182.948z"/>
				<path style="fill:#FFFFFF;stroke:#263238;stroke-linecap:round;stroke-linejoin:round;stroke-miterlimit:10;" d="
					M297.533,166.286c0,0,2.078,1.128,2.881,4.298c0.803,3.17-0.1,6.827-3.243,8.431c-3.143,1.604-5.059,1.401-6.692,0.894
					c-1.632-0.507-1.781-1.142-2.484-0.876s-1.076,1.216-2.462,2.155c-1.386,0.939-2.481,1.748-4.678,1.908
					c-2.197,0.16-5.476,0.138-7.016-2.24c-1.541-2.377-2.122-5.907-0.582-8.661c1.54-2.754,4.727-3.427,7.486-4.313
					s12.516-2.506,13.349-2.545S296.179,165.358,297.533,166.286z"/>
				<path style="fill:#92E3A9;stroke:#263238;stroke-linecap:round;stroke-linejoin:round;stroke-miterlimit:10;" d="
					M285.001,168.453c0,0,7.458-2.167,10.431-1.465c2.972,0.702,4.703,4.821,3.196,8.53c-1.507,3.71-6.575,3.105-8.157,2.199
					c-1.582-0.906-2.964-0.224-3.619,0.448c-1.559,1.602-3.862,4.239-9.102,2.943c-5.24-1.296-4.414-7.634-2.27-9.693
					C277.624,169.355,285.001,168.453,285.001,168.453z"/>
				<polygon style="fill:#595959;stroke:#263238;stroke-linecap:round;stroke-linejoin:round;stroke-miterlimit:10;" points="
					266.133,176.578 259.633,179.342 260.7,182.643 266.959,181.113 				"/>
			</g>
			<path style="fill:none;stroke:#263238;stroke-linecap:round;stroke-linejoin:round;stroke-miterlimit:10;" d="M289.463,180.32
				l2.323,3.301c0,0-0.734,1.345-1.589,1.589c-0.856,0.245-1.589,0.122-1.956,0.611c-0.367,0.489-0.367,0.489-0.367,0.489"/>
		</g>
		<g>
			<path style="fill:#FFFFFF;stroke:#263238;stroke-linecap:round;stroke-linejoin:round;stroke-miterlimit:10;" d="
				M289.314,216.466l0.383,3.321c0,0-0.383,1.022-1.405,1.15c-1.022,0.128-3.843,0.638-6.142-0.256
				c-2.299-0.894-3.194-1.916-4.471-1.916c-1.277,0-1.533,2.044-0.894,3.193c0.639,1.15,4.651,3.223,7.078,3.479
				c2.427,0.255,5.638,1.799,5.638,1.799s2.41,1.521,4.199,2.159c1.788,0.639,3.227,1.57,3.227,1.57s3.321,2.172,5.621,2.427
				c0,0,9.041,10.702,12.827,14.369c3.786,3.667,6.259,7.154,12.263,9.07c3.13,0.999,6.958,1.147,8.436-2.299
				c1.776-4.14,1.152-10.082-1.449-13.782c-2.584-3.674-7.385-4.65-11.31-6.208c-5.122-2.033-10.002-5.001-14.643-7.959
				c-2.513-1.601-3.521-2.122-3.989-5.004c-0.22-1.358-0.275-3.995-1.571-4.859c-1.533-1.022-2.427-0.255-2.81,0.128
				c-0.383,0.383-0.894,1.022-0.894,1.022s1.036-4.621,0.27-5.771c-0.767-1.15-7.168,0.917-7.806,0.917
				S289.314,216.466,289.314,216.466z"/>
			<g>
				<polygon style="fill:#FFFFFF;stroke:#263238;stroke-linecap:round;stroke-linejoin:round;stroke-miterlimit:10;" points="
					294.453,210.18 295.677,213.239 292.618,215.917 291.317,213.392 				"/>
				<path style="fill:#FFFFFF;stroke:#263238;stroke-linecap:round;stroke-linejoin:round;stroke-miterlimit:10;" d="M291.17,210.15
					c0,0-2.728-1.65-3.929-1.563c-1.201,0.087-4.256,1.823-5.566,2.518c-1.31,0.695-0.218,1.302,1.746,1.302
					c1.964,0,3.929-0.608,3.929-0.608l2.51,1.042L291.17,210.15z"/>
				<path style="fill:#FFFFFF;stroke:#263238;stroke-linecap:round;stroke-linejoin:round;stroke-miterlimit:10;" d="
					M294.331,212.362c-0.336,0.462-4.431,3.199-5.311,3.67c-0.88,0.47-1.923,0.323-1.75-1.123c0.136-1.136,3.238-3.981,4.563-5.149
					c0.429-0.379,0.998-0.548,1.566-0.472C294.525,209.438,296.021,210.044,294.331,212.362z"/>
				<path style="fill:#FFFFFF;stroke:#263238;stroke-linecap:round;stroke-linejoin:round;stroke-miterlimit:10;" d="
					M296.746,210.686c0,0-6.881,5.757-6.484,7.158c0.397,1.401,2.038,0.412,2.489,0.32c0.451-0.093,4.898-2.564,6.018-3.626
					c1.12-1.062,1.34-2.627,0.844-3.104C299.116,210.958,298.077,210.123,296.746,210.686z"/>
				<path style="fill:#FFFFFF;stroke:#263238;stroke-linecap:round;stroke-linejoin:round;stroke-miterlimit:10;" d="
					M302.46,218.229c-0.529,0.529-2.766,1.559-3.506,1.77c-0.741,0.212-2.857,1.058-2.751-0.317
					c0.106-1.376,4.127-4.021,4.127-4.021s0.741-0.741,2.117-0.317c1.376,0.423,1.27,1.587,1.27,1.587"/>
			</g>
			<path style="fill:#FFFFFF;stroke:#263238;stroke-linecap:round;stroke-linejoin:round;stroke-miterlimit:10;" d="
				M298.801,220.239c0,0,0.6,1.701,2.602,1.801"/>
			<path style="fill:#FFFFFF;stroke:#263238;stroke-linecap:round;stroke-linejoin:round;stroke-miterlimit:10;" d="
				M295.138,223.826c0,0,0.5,5.664,4.331,7.163c3.832,1.499,3.998,0.666,3.998,0.666"/>
		</g>
		<g>
			<path style="fill:#FFFFFF;stroke:#263238;stroke-linecap:round;stroke-linejoin:round;stroke-miterlimit:10;" d="M257.619,247.38
				c0,0-2.957,3.226-3.092,7.393c-0.134,4.167,4.436,7.797,7.931,8.2c3.495,0.403,5.915-2.151,6.452-3.898
				c0.538-1.747,0.403-7.259-2.42-10.754C266.491,248.321,262.861,243.751,257.619,247.38z"/>
			<path style="fill:#FFFFFF;stroke:#263238;stroke-linecap:round;stroke-linejoin:round;stroke-miterlimit:10;" d="M263.072,237.84
				c0,0-0.27,3.913-0.944,4.992c-0.675,1.079-5.397-1.079-6.341-1.484c-0.944-0.405-1.484,1.484-0.944,2.968
				c0.54,1.484,0.809,4.452,1.484,6.206c0.674,1.754,3.103,4.317,3.103,4.317s0.54,1.079,0.944,1.214
				c0.405,0.135,1.754,2.024,4.722,1.889c2.968-0.135,4.182-3.238,3.643-4.317c-0.54-1.079-1.617-3.82-1.617-3.82
				s1.617-1.576,1.617-4.005c0-2.428-1.619-5.127-1.619-5.667C267.119,239.594,264.286,237.436,263.072,237.84z"/>
			<path style="fill:#FFFFFF;stroke:#263238;stroke-linecap:round;stroke-linejoin:round;stroke-miterlimit:10;" d="
				M252.548,238.515c0,0-0.81,3.373,0,4.317c0.809,0.944,5.801,0.944,6.881,0.81c1.079-0.135,1.754-1.619,1.214-2.563
				c-0.54-0.944-4.182-2.159-5.532-2.698C253.762,237.84,253.357,237.975,252.548,238.515z"/>
			<path style="fill:#FFFFFF;stroke:#263238;stroke-linecap:round;stroke-linejoin:round;stroke-miterlimit:10;" d="
				M252.278,245.261c0,1.894,0,2.833,1.214,2.968c1.214,0.135,5.801,0.809,6.746,0.27c0.944-0.54,1.349-2.698,0.135-3.103
				c-1.214-0.405-5.397-1.619-6.476-1.754C252.818,243.507,252.278,244.316,252.278,245.261z"/>
			<path style="fill:#FFFFFF;stroke:#263238;stroke-linecap:round;stroke-linejoin:round;stroke-miterlimit:10;" d="
				M254.841,249.726c-1.649,0.266-2.35,2.337-1.115,3.462c0.012,0.011,0.024,0.021,0.036,0.032c1.214,1.079,5.127-0.54,6.341-1.484
				c1.214-0.944,1.214-2.159-0.27-2.428C258.871,249.133,256.436,249.469,254.841,249.726z"/>
			<path style="fill:#FFFFFF;stroke:#263238;stroke-linecap:round;stroke-linejoin:round;stroke-miterlimit:10;" d="
				M258.904,253.391c-1.409,0.227-2.007,1.997-0.952,2.958c0.01,0.009,0.02,0.018,0.031,0.028c1.037,0.922,4.38-0.461,5.417-1.268
				c1.037-0.807,1.037-1.844-0.23-2.074C262.347,252.885,260.266,253.171,258.904,253.391z"/>
			<path style="fill:#FFFFFF;stroke:#263238;stroke-linecap:round;stroke-linejoin:round;stroke-miterlimit:10;" d="M265.23,236.896
				c0,0-2.159-0.675-2.159,0.944s-0.27,4.992,0.81,5.936c1.079,0.944,2.833,0.81,3.103,0.135c0.27-0.675,0.809-3.508,1.079-5.127
				C268.333,237.166,266.309,237.301,265.23,236.896z"/>
		</g>
	</g>
</g>
<g id="Character_1">
	<g>
		<path style="fill:#263238;stroke:#263238;stroke-linecap:round;stroke-linejoin:round;stroke-miterlimit:10;" d="M218.956,288.757
			c0.183-7.146-2.382-12.827-2.382-12.827l-48.742-2.565l-1.283,4.398v10.994c0,0-1.099,14.842,0,27.119
			c1.099,12.277,4.764,30.051,4.947,32.617c0.183,2.565,0,14.293,1.649,26.02s0.55,28.402,0.55,30.234
			c0,1.832-1.099,5.864-1.099,5.864s-0.916,1.283-6.78,4.398c-5.864,3.115-10.078,6.413-7.696,8.246
			c2.382,1.832,8.246,3.298,14.293,1.1c6.047-2.199,7.696-6.047,10.078-6.78c2.382-0.733,4.031,0.367,5.68-2.565
			c1.649-2.932-1.466-8.796-1.466-11.178c0-2.382,0.916-22.905,2.565-28.769c1.649-5.864,2.565-26.203,2.565-26.203
			s4.947,20.889,7.513,28.768c0.562,1.727,1.195,3.858,1.85,6.186l3.642,23.129v2.409l-1.405,2.409l1.205,6.625l0.293,0.086
			c-0.268,0.622-0.544,1.296-0.82,2.033c-1.649,4.398-5.314,6.413-4.947,9.528c0.366,3.115,6.597,4.398,10.445,3.298
			c3.848-1.1,6.23-4.215,6.413-6.23c0.183-2.016,0.183-8.246,0.916-10.628c0.733-2.382-0.733-9.345-0.367-14.476
			c0.367-5.131,1.466-21.073,0.367-30.967c-1.099-9.895-1.099-24.371-2.199-31.334c-1.099-6.963-0.916-23.271,0-26.753
			C215.658,309.463,218.773,295.903,218.956,288.757z"/>
		<path style="fill:none;stroke:#9C9C9C;stroke-linecap:round;stroke-linejoin:round;stroke-miterlimit:10;" d="M190.135,337.522
			c0.397,2.979,0.787,5.729,1.152,8.04"/>
		<path style="fill:none;stroke:#9C9C9C;stroke-linecap:round;stroke-linejoin:round;stroke-miterlimit:10;" d="M176.994,294.254
			l8.979,7.513c0,0,1.731,16.598,3.523,30.817"/>
		<path style="fill:#92E3A9;stroke:#263238;stroke-linecap:round;stroke-linejoin:round;stroke-miterlimit:10;" d="M166.367,270.25
			c0,0-0.733,5.68,0.183,7.513s5.314,4.215,17.225,5.497c11.91,1.283,26.02-1.649,28.952-2.565c2.932-0.916,4.764-1.832,5.314-3.665
			c0.55-1.832-1.283-5.864-1.283-5.864s-11.361,3.848-27.669,2.932S166.367,270.25,166.367,270.25z"/>
		<g>
			<path style="fill:#92E3A9;stroke:#263238;stroke-linecap:round;stroke-linejoin:round;stroke-miterlimit:10;" d="M143.02,203.156
				c0,0,13.617,2.017,22.022,1.177c8.405-0.84,17.987-4.371,19.668-4.371c1.681,0,17.651,0.504,24.039,1.513
				c6.388,1.009,12.104,3.53,14.793,13.28c2.69,9.75-3.727,21.381-6.08,30.795c-2.353,9.414-0.476,18.124-0.476,18.124
				s1.513,6.22,1.009,7.901c-0.504,1.681,0,1.345-2.858,3.026c-2.858,1.681-6.556,3.194-19.836,3.53
				c-13.28,0.336-21.181-1.177-25.72-2.69c-4.539-1.513-4.371-7.733-4.371-7.733s-0.166-2.868,1.783-9.829
				c2.186-7.806,1.85-12.517,1.85-17.729c0-5.211,0.336-14.121,0.336-14.121s-17.102-1.842-24.852-4.557
				c-3.689-1.292-12.092-2.277-13.911-3.17c0,0-5.551-3.044-4.542-7.751c1.009-4.707,4.539-6.388,6.556-7.397
				C134.446,202.148,143.02,203.156,143.02,203.156z"/>
			<path style="fill:none;stroke:#263238;stroke-linecap:round;stroke-linejoin:round;stroke-miterlimit:10;" d="M145.541,207.695
				c0,0-0.84,6.388-3.194,9.078"/>
			<path style="fill:none;stroke:#263238;stroke-linecap:round;stroke-linejoin:round;stroke-miterlimit:10;" d="M146.214,209.712
				c0,0,0.336,4.203-1.177,7.733"/>
			<path style="fill:none;stroke:#263238;stroke-linecap:round;stroke-linejoin:round;stroke-miterlimit:10;" d="M209.589,231.23
				c0,0,4.539,5.548,8.237,6.892"/>
		</g>
		<g>
			<path style="fill:#FFFFFF;stroke:#263238;stroke-linecap:round;stroke-linejoin:round;stroke-miterlimit:10;" d="M163.02,184.102
				c0,0,1.144-1.798,3.596-2.616c2.452-0.817,3.106-0.654,4.087-1.798c0.981-1.144,3.384-3.687,3.384-3.687l1.226-0.895
				c0,0-0.523-0.976-1.831-0.976c-1.308,0-2.942,1.308-3.433,1.471c-0.49,0.163-1.308,0.327-1.308,0.327s1.144-3.106,2.125-4.414
				c0.981-1.308,5.661-9.318,5.661-9.318s-0.41-0.779-1.902,0.164c-1.491,0.943-8.827,3.106-11.116,5.068
				c-2.289,1.962-4.25,8.01-5.068,9.481c-0.817,1.471-1.798,3.433-2.616,4.087c-0.817,0.654-16.347,12.587-22.558,18.799
				c-6.212,6.212-5.394,11.279-1.144,13.077c4.25,1.798,7.029,1.144,8.827,0C142.749,211.728,163.02,184.102,163.02,184.102z"/>
			<path style="fill:none;stroke:#263238;stroke-linecap:round;stroke-linejoin:round;stroke-miterlimit:10;" d="M161.712,180.996
				c0,0,1.471-1.471,2.125-3.106c0.654-1.635,0.163-6.212,0.491-6.866c0.327-0.654,1.798-1.798,2.779-2.452"/>
		</g>
		<path style="fill:#92E3A9;stroke:#263238;stroke-linecap:round;stroke-linejoin:round;stroke-miterlimit:10;" d="M190.93,197.105
			c0,0-9.414,0.672-11.263,3.194c-1.849,2.521-3.698,4.539-3.194,10.927c0.504,6.388-0.168,10.423,0.841,10.927
			c1.009,0.504,19.668-11.599,23.871-14.625c4.203-3.026,14.402-3.491,13.001-5.444c-1.402-1.953-5.268-4.643-10.479-5.147
			C198.494,196.432,190.93,197.105,190.93,197.105z"/>
		<path style="fill:#263238;stroke:#263238;stroke-linecap:round;stroke-linejoin:round;stroke-miterlimit:10;" d="M204.925,152.962
			c0,0,4.057-4.057,10.89-1.922c6.833,2.135,10.676,11.957,10.89,17.509c0.214,5.552-3.203,10.249-3.844,13.665
			c-0.641,3.416,0.214,7.046,0.214,7.046s-4.057,2.349-8.541-1.068c-4.484-3.416-6.192-11.317-5.765-17.296
			c0.427-5.979-3.843-16.228-3.843-16.228V152.962z"/>
		<g>
			<path style="fill:#FFFFFF;stroke:#263238;stroke-linecap:round;stroke-linejoin:round;stroke-miterlimit:10;" d="
				M177.929,159.526c0,0-2.379,10.585-2.617,15.58c-0.238,4.995,2.141,10.109,3.211,12.488c1.07,2.379,2.973,6.898,5.114,7.136
				c2.141,0.238,4.401-0.238,4.401-0.238l-1.189,4.639c0,0,0.238,1.665-2.854,6.185c-3.092,4.52-4.282,8.682-4.401,9.634
				c-0.119,0.951-1.903,2.854-0.119,2.735c1.784-0.119,13.083-11.299,17.721-14.748c4.639-3.449,7.612-5.59,7.612-5.59
				s-2.26-3.211-1.427-6.185c0.833-2.973,3.449-8.325,3.449-8.325s4.876-2.498,5.59-6.185c0.714-3.687,1.308-2.498,1.665-5.947
				c0.357-3.449-0.119-6.423-3.449-11.537s-8.563-8.801-17.721-8.801c-9.158,0-16.401,3.417-17.472,4.964
				C174.373,156.878,176.859,159.05,177.929,159.526z"/>
			<path style="fill:none;stroke:#263238;stroke-linecap:round;stroke-linejoin:round;stroke-miterlimit:10;" d="M181.439,185.726
				c0,0,3.053,1.866,6.106-0.17"/>
			<path style="fill:#263238;stroke:#263238;stroke-linecap:round;stroke-linejoin:round;stroke-miterlimit:10;" d="
				M192.915,150.368c-9.158,0-16.401,3.417-17.472,4.964c-1.07,1.546,1.416,3.719,2.486,4.194c0,0,1.308,0,3.687-0.832
				c2.379-0.833,4.52-2.379,4.52-2.379s-0.277,4.41,3.529,7.027c3.806,2.617,10.505,5.105,12.051,6.77
				c1.546,1.665,1.308,3.449,1.427,5.709c0.106,2.011,0.22,6.65,3.344,7.733c0.209-0.442,0.343-0.715,0.343-0.715
				s4.876-2.498,5.59-6.185c0.714-3.687,1.308-2.498,1.665-5.947c0.357-3.449-0.119-6.423-3.449-11.537
				C207.306,154.055,202.073,150.368,192.915,150.368z"/>
			<path style="fill:none;stroke:#263238;stroke-linecap:round;stroke-linejoin:round;stroke-miterlimit:10;" d="M180.189,179.269
				c0,0,0.119,1.903,1.784,2.26c1.665,0.357,2.736-0.952,2.736-0.952"/>
			<polygon style="fill:#263238;stroke:#263238;stroke-linecap:round;stroke-linejoin:round;stroke-miterlimit:10;" points="
				188.038,194.493 195.223,192.112 186.849,199.131 			"/>
			<g>
				<path style="fill:#9C9C9C;stroke:#263238;stroke-linecap:round;stroke-linejoin:round;stroke-miterlimit:10;" d="
					M192.853,179.067c0,0,11.334,0.352,12.037,0c0.703-0.351,1.142-7.117,1.142-7.908s-10.983-5.975-10.983-5.975L192.853,179.067z"
					/>
				<path style="fill:#FFFFFF;stroke:#263238;stroke-linecap:round;stroke-linejoin:round;stroke-miterlimit:10;" d="
					M173.134,163.304c0,0-2.024,1.223-2.679,4.427c-0.655,3.204,0.417,6.815,3.631,8.271c3.214,1.456,5.119,1.165,6.726,0.583
					c1.607-0.583,1.726-1.223,2.44-0.99s1.131,1.165,2.56,2.039c1.428,0.874,2.559,1.631,4.762,1.689
					c2.202,0.058,5.476-0.117,6.905-2.563c1.428-2.446,1.845-5.999,0.178-8.679c-1.667-2.679-4.881-3.204-7.678-3.961
					s-12.619-1.922-13.452-1.922C175.694,162.197,174.444,162.313,173.134,163.304z"/>
				<path style="fill:#92E3A9;stroke:#263238;stroke-linecap:round;stroke-linejoin:round;stroke-miterlimit:10;" d="
					M185.753,164.885c0,0-7.551-1.818-10.487-0.979c-2.937,0.839-4.475,5.034-2.797,8.67c1.678,3.636,6.712,2.797,8.25,1.818
					c1.538-0.979,2.951-0.361,3.636,0.28c1.632,1.528,4.055,4.055,9.229,2.517c5.174-1.538,4.055-7.831,1.818-9.788
					C193.164,165.445,185.753,164.885,185.753,164.885z"/>
				<polygon style="fill:#595959;stroke:#263238;stroke-linecap:round;stroke-linejoin:round;stroke-miterlimit:10;" points="
					204.979,172.125 213.326,173.971 212.974,177.749 204.363,176.694 				"/>
			</g>
		</g>
		<g>
			<path style="fill:#92E3A9;stroke:#263238;stroke-linecap:round;stroke-linejoin:round;stroke-miterlimit:10;" d="
				M220.296,208.299c-2.574-2.846-10.162-7.723-14.905-5.42c-4.742,2.303-6.775,7.046-6.775,7.046s-3.117,2.845-3.523,2.845
				c-0.407,0-1.355-0.406-2.304,0.271c-0.948,0.677-8.516,2.453-8.516,2.453s-2.403,0.271-4.435,0c-2.032-0.271-3.783,0-3.783,0
				s-7.847,10.37-7.305,12.131c0.542,1.762,10.44,6.236,13.827,6.914c3.387,0.677,11.725,0.02,12.131-0.522
				c0.406-0.542,3.365,0.703,4.991,0.297c1.626-0.407,3.658-2.304,3.658-2.304s3.523-1.084,5.149-1.761
				c1.626-0.678,5.284,0.813,9.891-1.491"/>
			<g>
				<path style="fill:none;stroke:#263238;stroke-linecap:round;stroke-linejoin:round;stroke-miterlimit:10;" d="M183.23,217.191
					c0,0,3.261,1.957,3,6.522c-0.261,4.566-1.826,6.001-1.826,6.001"/>
				<path style="fill:none;stroke:#263238;stroke-linecap:round;stroke-linejoin:round;stroke-miterlimit:10;" d="M189.1,224.105
					c0,0,0.522,1.957-0.913,4.565"/>
				<path style="fill:none;stroke:#263238;stroke-linecap:round;stroke-linejoin:round;stroke-miterlimit:10;" d="M197.84,212.495
					c0,0,5.609,0,8.218,3.261"/>
			</g>
			<g>
				<path style="fill:#FFFFFF;stroke:#263238;stroke-linecap:round;stroke-linejoin:round;stroke-miterlimit:10;" d="
					M150.254,200.11c0,0-5.721-9.481-6.866-12.587c-1.144-3.106-3.471-7.375-4.288-7.375c-0.817,0-1.346-0.51-1.346-0.51
					s-0.087-1.106-0.904-2.413c-0.817-1.308-2.289-1.144-2.289-1.144s-2.779-0.817-2.779,1.798c0,0-1.471,1.471-1.144,3.596
					c0.327,2.125,3.433,9.318,3.923,11.279c0.49,1.962,0.817,3.923,0.817,3.923s-3.923-1.144-5.558-2.615
					c-1.635-1.471-3.923-1.471-3.923,0.327c0,1.798,4.741,4.25,6.539,5.558c1.798,1.308,3.596,3.269,5.231,4.087
					c1.635,0.817,4.087,0.981,4.577,0.981s8.337,8.337,8.337,8.337s10.135,12.097,16.837,14.222
					c6.702,2.125,10.952,2.288,13.077,0.981c2.125-1.308,3.589-2.642,0.647-7.71c-2.942-5.067-5.337-5.472-9.914-8.088
					c-4.577-2.615-12.311-7.088-15.907-9.05C151.725,201.744,150.254,200.11,150.254,200.11z"/>
				<path style="fill:none;stroke:#263238;stroke-linecap:round;stroke-linejoin:round;stroke-miterlimit:10;" d="M131.783,177.878
					c0,0,1.962,7.029,3.923,10.625"/>
				<path style="fill:none;stroke:#263238;stroke-linecap:round;stroke-linejoin:round;stroke-miterlimit:10;" d="M134.561,176.08
					c0,0,1.812,8.664,3.448,12.482"/>
				<path style="fill:none;stroke:#263238;stroke-linecap:round;stroke-linejoin:round;stroke-miterlimit:10;" d="M137.754,179.638
					c0,0,1.891,6.587,3.45,10.794"/>
				<path style="fill:none;stroke:#263238;stroke-linecap:round;stroke-linejoin:round;stroke-miterlimit:10;" d="M141.905,196.976
					c0,0,0.935,4.597,3.194,5.454c2.259,0.857,3.584,0.078,3.584,0.078"/>
				<path style="fill:none;stroke:#263238;stroke-linecap:round;stroke-linejoin:round;stroke-miterlimit:10;" d="M135.379,196.677
					c0,0,2.319,0.144,2.865,0.221"/>
			</g>
		</g>
	</g>
</g>
<g id="Planet_Earth">
	<g>
		<path id="XMLID_2_" style="fill:none;stroke:#263238;stroke-linecap:round;stroke-linejoin:round;stroke-miterlimit:10;" d="
			M130.12,101.859l9.988,4.495l2.747,4.495l4.495,1.748l0.499,4.744l-1.748,2.747l-3.496,0.749l-7.491-2.997v-0.999l4.245-1.748
			l-1.498-5.244l-6.742-2.497l-2.997-3.995L130.12,101.859z M193.046,217.224l-7.991-3.246l-9.739-3.496h-7.741l-7.241-1.498
			l-7.991,1.748l-4.495,0.25h-2.747l-5.244,2.997l-4.994,1.998l-6.742-4.245l1.748-6.992l-4.245-1.748h-4.994l-0.749-2.247
			l0.499-4.495l-1.748-2.497l-3.496,0.499l-0.999,2.497l-4.245,0.25l-3.746-4.495l-1.498-5.993l3.746-6.992l7.242,0.499l1.998,1.748
			h2.997l3.746-2.247l3.246,0.999l4.495,7.741l1.748-0.25l-0.499-5.743l-1.498-2.997l0.5-4.744l9.239-3.995l1.249-9.239l3.995-3.246
			l3.246-5.743l2.497-0.499l5.743-3.745l0.25-1.998l-3.995,0.25l-0.749-1.998h-2.747l-4.245,0.999l1.998-3.246l8.74-2.497
			l1.998-2.247l3.496,5.494l2.247,2.247l3.496-0.999l-1.498-3.246l-5.244-3.746l-5.993-6.742l-6.243-4.245l-5.993-0.999
			l-2.996-2.996l-3.995-0.999l-0.499,0.999l-0.499,7.242l0.999,2.497l-2.247,7.991l-4.994-3.995l0.749-3.496l-5.244-2.497
			l-2.247-2.747l1.249-6.243l7.241-5.244l0.499-5.993l-2.747,0.25l-1.748-2.247l-0.749-3.746l-1.748-0.25l-0.999,3.995l-2.747,0.499
			l-1.248-8.74l-1.998-1.249l-3.496-1.498l-3.995,1.998l4.994,4.745l0.999,4.245l-8.989-6.742l-6.243-6.742l-0.5-6.742l-6.492-1.998
			l-4.994,3.246c0,0-2.497,1.498-3.746,1.998c-1.249,0.499-5.993,0.999-5.993,0.999l-0.999,4.245l-5.743,0.25l0.5,2.747l9.239,1.498
			l4.744,5.244v8.74l-2.747,7.741l0.499,8.24l-6.992,12.236l-1.498,18.229l2.247,10.488l3.246,7.991l3.746,0.499l-1.248-3.995
			l-1.998-2.997l-1.249-5.493l2.247-0.5l3.496,8.99l2.497,7.991v6.492l4.744,5.743l8.49,6.243l12.985,3.496l3.995,3.746l2.996,3.995
			l4.495,2.747l5.493,1.498l5.494-0.25c0,0-0.25,2.497-0.25,3.746c0,1.249-3.496,5.494-3.496,5.494l-2.747,4.994l1.998,5.494
			l5.494,2.247l7.741,7.991l3.496,1.498v3.746l0.436,1.744c19.87-3.204,37.877-11.97,52.373-24.655l0.13-1.81l6.742-12.236
			l-3.246-2.247L193.046,217.224z M219.016,118.589l-2.747-4.744l-3.496-5.493l-0.999-7.491l4.495,0.749l0.25-2.497l-3.246-0.25
			l2.747-1.249l2.996-1.748v-2.497l-2.996-3.995l-0.64-5.374c-19.294-23.587-48.625-38.646-81.476-38.646
			c-14.933,0-29.137,3.118-42.004,8.728l5.758,4.079l-3.496,4.495l-4.744,0.999l-0.499,6.742l-1.998,0.749l-2.497,2.747l0.25,4.495
			l4.245,0.499l-1.748,4.245h4.245l7.242-9.239l0.749-3.995l6.992-0.499l1.748-2.996l7.242-0.749l0.749-4.245l5.244-0.25
			c0,0,3.745-1.998,4.495-1.998c0.749,0,4.245,1.249,4.245,1.249l3.746,2.996h5.244l4.495-2.747l5.743,0.499
			c0,0,1.498,0.999,2.747,0.999c1.249,0,4.994-1.748,4.994-1.748l7.242,4.495l2.996,2.247v3.746l3.746,0.499l1.249-2.247
			l3.246,1.498l-0.25,1.998l-7.491,1.998l4.245,5.494l8.99,4.994l3.746,4.994l5.493,0.499l1.249-2.497l1.998-0.499l-6.493-4.994
			l-3.995-0.499l3.246-0.999l-2.996-4.245l4.245-0.25l5.494,2.996l1.249,5.993l2.747,3.246l2.247,7.242l5.494,3.995v8.24
			l5.743,3.746l-0.25,2.747l-0.749,3.246l1.498,4.495l0.499,2.247l4.245,0.749l1.998-4.245L219.016,118.589z M222.262,93.433v1.434
			l-1.249,3.995l0.749,3.496l2.747,0.999v4.744l-2.997-1.249l-0.749,13.484l-2.997,5.494l1.998,6.992l3.246,2.997v13.484
			l3.246,10.488l3.496,7.991l5.743,1.498l1.998-4.994l0.814-0.637c0.532-4.286,0.809-8.652,0.809-13.082
			C239.117,129.502,232.923,109.886,222.262,93.433z M164.58,91.87l-16.481-7.242l-7.241,0.25l-1.748,4.744l-2.997-3.246
			l-5.493,1.249l-0.499,8.24l4.495,3.246l3.246-4.744l3.746,3.746l7.741,6.742l1.498,7.242l6.492,8.24l10.488-1.748l-0.25-3.746
			l-2.247-4.245l-0.499-9.988l2.497-4.245L164.58,91.87z M178.064,97.364l-3.746-0.999l-3.246,2.747l1.748,7.242h3.246
			L178.064,97.364z M201.287,102.108l-8.49-4.495l-1.748-2.996l-1.998,0.749l1.748,4.994l1.498,6.492l3.746,1.498l0.749-0.999
			l-2.247-3.746l6.492,2.497L201.287,102.108z M128.372,192.253l-0.999,0.999l7.491,2.247l2.996,3.496l4.745,0.499l1.748-2.747
			l-5.743-0.999L128.372,192.253z M150.596,196.997l-5.244,1.498l0.749,1.998h6.492l1.248-1.998l-2.247,0.25L150.596,196.997z"/>
		
			<ellipse id="XMLID_1_" transform="matrix(0.7071 -0.7071 0.7071 0.7071 -67.2474 138.7842)" style="fill:none;stroke:#263238;stroke-linecap:round;stroke-linejoin:round;stroke-miterlimit:10;" cx="133.904" cy="150.567" rx="105.213" ry="105.213"/>
	</g>
</g>
</svg>
